<svg width="96" height="96" viewBox="0 0 96 96" fill="none" xmlns="http://www.w3.org/2000/svg">
  <rect width="96" height="96" rx="48" fill="#D7E5D0"/>
  <circle cx="48" cy="50" r="25" fill="#D3A17E"/>
  <path d="M25 39C29 22 43 16 57 19C70 22 77 33 76 45C66 35 47 35 25 39Z" fill="#2E241D"/>
  <circle cx="39" cy="49" r="3" fill="#27221C"/>
  <circle cx="57" cy="49" r="3" fill="#27221C"/>
  <path d="M40 63C44 66 52 66 56 63" stroke="#27221C" stroke-width="4" stroke-linecap="round"/>
  <path d="M32 72C40 81 57 81 65 72C71 76 76 84 78 96H18C20 84 26 76 32 72Z" fill="#163F25"/>
</svg>
