<svg width="96" height="96" viewBox="0 0 96 96" fill="none" xmlns="http://www.w3.org/2000/svg">
  <rect width="96" height="96" rx="48" fill="#F5D8B6"/>
  <path d="M21 45C21 25 35 15 51 15C67 15 78 28 78 45V82H21V45Z" fill="#5B3525"/>
  <circle cx="48" cy="48" r="25" fill="#F1C8A3"/>
  <circle cx="39" cy="47" r="3" fill="#27221C"/>
  <circle cx="57" cy="47" r="3" fill="#27221C"/>
  <path d="M40 61C44 65 52 65 56 61" stroke="#27221C" stroke-width="4" stroke-linecap="round"/>
  <path d="M25 43C32 31 43 25 61 30C57 21 39 16 29 28C24 34 22 39 21 45L25 43Z" fill="#3F2419"/>
</svg>
