<svg width="96" height="96" viewBox="0 0 96 96" fill="none" xmlns="http://www.w3.org/2000/svg">
  <rect width="96" height="96" rx="48" fill="#FFE6A6"/>
  <path d="M23 46C23 27 34 16 49 16C64 16 74 28 74 46V83H23V46Z" fill="#7A4B2A"/>
  <circle cx="48" cy="49" r="24" fill="#E8B58F"/>
  <path d="M25 42C34 30 48 26 68 34C62 22 43 17 31 28C26 33 23 39 23 46L25 42Z" fill="#5B3525"/>
  <circle cx="39" cy="49" r="3" fill="#27221C"/>
  <circle cx="57" cy="49" r="3" fill="#27221C"/>
  <path d="M40 62C44 66 52 66 56 62" stroke="#27221C" stroke-width="4" stroke-linecap="round"/>
  <circle cx="27" cy="54" r="5" fill="#E8B58F"/>
  <circle cx="69" cy="54" r="5" fill="#E8B58F"/>
</svg>
